<?xml version="1.0" encoding="UTF-8"?>
<svg id="Ebene_1" data-name="Ebene 1" xmlns="http://www.w3.org/2000/svg" xmlns:xlink="http://www.w3.org/1999/xlink" viewBox="0 0 211.9 112.63">
  <defs>
    <style>
      .cls-1 {
        clip-path: url(#clippath);
      }

      .cls-2 {
        fill: none;
      }

      .cls-2, .cls-3 {
        stroke-width: 0px;
      }

      .cls-4 {
        clip-path: url(#clippath-1);
      }

      .cls-3 {
        fill: #5e7850;
      }
    </style>
    <clipPath id="clippath">
      <rect class="cls-2" x="-8.7" y="-8.23" width="466.56" height="126.51"/>
    </clipPath>
    <clipPath id="clippath-1">
      <rect class="cls-2" x="-8.7" y="-8.23" width="466.56" height="126.51"/>
    </clipPath>
  </defs>
  <g class="cls-1">
    <g class="cls-4">
      <path class="cls-3" d="m201.63,103.58h-19.39c2.25-22.72,1.84-62.24-8.83-74.03-1.93-2.13-3.58-2.42-4.94-2.42-7.98,0-11.65,13.64-15.95,32.91-2.21,9.92-4.51,20.17-8.37,28.27-3.78,7.91-11.01,17.34-24.04,17.34-21.04,0-27.31-20.18-31.89-34.92-4.48-14.42-7.18-20.45-12.3-20.45-4.18,0-6.23,3.66-10.4,18.66-4.06,14.57-10.19,36.6-34.05,36.6-14.31,0-24.71-9.31-25.84-10.37l6.65-7.13,6.58-7.18c.06.05,5.84,5.19,12.61,5.19s9.96-3.23,15.28-22.34c3.87-13.89,9.17-32.92,29.17-32.92s26.43,19.74,30.91,34.16c4.86,15.66,7.6,21.22,13.28,21.22,6.61,0,10.37-16.84,13.39-30.37,2.34-10.47,4.75-21.29,9.02-29.96,4.08-8.3,11.9-18.19,25.95-18.19,7.45,0,14.16,3.05,19.39,8.83,19.91,21.99,14.46,80.21,13.77,87.1"/>
    </g>
  </g>
</svg>